<svg xmlns="http://www.w3.org/2000/svg" viewBox="0 0 1072.91 993.73"><g id="Layer_2" data-name="Layer 2"><g id="Layer_1-2" data-name="Layer 1"><rect x="965.62" y="894.36" width="107.29" height="99.37" style="fill:#b2b1ae"/><rect x="858.32" y="894.36" width="107.29" height="99.37" style="fill:#b0b0ae"/><rect x="751.03" y="894.36" width="107.29" height="99.37" style="fill:#a5a4a2"/><rect x="643.74" y="894.36" width="107.29" height="99.37" style="fill:#b7b6b4"/><rect x="536.45" y="894.36" width="107.29" height="99.37" style="fill:#aaa9a5"/><rect x="429.16" y="894.36" width="107.29" height="99.37" style="fill:#b3b2b0"/><rect x="321.87" y="894.36" width="107.29" height="99.37" style="fill:#c2c2c0"/><rect x="214.58" y="894.36" width="107.29" height="99.37" style="fill:#dcdbd9"/><rect x="107.29" y="894.36" width="107.29" height="99.37" style="fill:#cacac8"/><rect y="894.36" width="107.29" height="99.37" style="fill:#bfbfbd"/><rect x="965.62" y="794.99" width="107.29" height="99.37" style="fill:#b1b0ac"/><rect y="794.99" width="107.29" height="99.37" style="fill:#c9c9c7"/><rect x="965.62" y="695.61" width="107.29" height="99.37" style="fill:#bbbbb9"/><rect x="751.03" y="695.61" width="107.29" height="99.37" style="fill:#b6b5b3"/><rect x="643.74" y="695.61" width="107.29" height="99.37" style="fill:#abaaa8"/><rect x="536.45" y="695.61" width="107.29" height="99.37" style="fill:#afaeac"/><rect x="429.16" y="695.61" width="107.29" height="99.37" style="fill:#b7b7b4"/><rect x="321.87" y="695.61" width="107.29" height="99.37" style="fill:#cacac7"/><rect x="214.58" y="695.61" width="107.29" height="99.37" style="fill:#dfdedc"/><rect y="695.61" width="107.29" height="99.37" style="fill:#c8c8c6"/><rect x="965.62" y="596.24" width="107.29" height="99.37" style="fill:#b5b5b3"/><rect x="751.03" y="596.24" width="107.29" height="99.37" style="fill:#b0b0ae"/><rect x="643.74" y="596.24" width="107.29" height="99.37" style="fill:#b9b9b7"/><rect x="536.45" y="596.24" width="107.29" height="99.37" style="fill:#bcbcba"/><rect x="429.16" y="596.24" width="107.29" height="99.37" style="fill:#bebdbb"/><rect x="321.87" y="596.24" width="107.29" height="99.37" style="fill:#ccccca"/><rect x="214.58" y="596.24" width="107.29" height="99.37" style="fill:#d8d8d6"/><rect y="596.24" width="107.29" height="99.37" style="fill:#cacac8"/><rect x="965.62" y="496.87" width="107.29" height="99.37" style="fill:#b7b7b5"/><rect x="751.03" y="496.87" width="107.29" height="99.37" style="fill:#b8b7b5"/><rect x="643.74" y="496.87" width="107.29" height="99.37" style="fill:#b5b5b3"/><rect x="321.87" y="496.87" width="107.29" height="99.37" style="fill:#cccbc9"/><rect x="214.58" y="496.87" width="107.29" height="99.37" style="fill:#dfdedc"/><rect y="496.87" width="107.29" height="99.37" style="fill:#cdcdcb"/><rect x="965.62" y="397.49" width="107.29" height="99.37" style="fill:#babab8"/><rect x="751.03" y="397.49" width="107.29" height="99.37" style="fill:#b9b8b6"/><rect x="643.74" y="397.49" width="107.29" height="99.37" style="fill:#b1b1af"/><rect x="321.87" y="397.49" width="107.29" height="99.37" style="fill:#cdcdcb"/><rect x="214.58" y="397.49" width="107.29" height="99.37" style="fill:#e0dfdd"/><rect y="397.49" width="107.29" height="99.37" style="fill:#ccccca"/><rect x="965.62" y="298.12" width="107.29" height="99.37" style="fill:#b6b6b4"/><rect x="751.03" y="298.12" width="107.29" height="99.37" style="fill:#babab8"/><rect x="643.74" y="298.12" width="107.29" height="99.37" style="fill:#c2c2c0"/><rect x="536.45" y="298.12" width="107.29" height="99.37" style="fill:#c0c0be"/><rect x="429.16" y="298.12" width="107.29" height="99.37" style="fill:#c6c6c4"/><rect x="321.87" y="298.12" width="107.29" height="99.37" style="fill:#d5d5d3"/><rect x="214.58" y="298.12" width="107.29" height="99.37" style="fill:#dddcda"/><rect y="298.12" width="107.29" height="99.37" style="fill:#cdcdcb"/><rect x="965.62" y="198.75" width="107.29" height="99.37" style="fill:#bebebd"/><rect x="751.03" y="198.75" width="107.29" height="99.37" style="fill:#bfbfbd"/><rect x="643.74" y="198.75" width="107.29" height="99.37" style="fill:#bfbfbd"/><rect x="536.45" y="198.75" width="107.29" height="99.37" style="fill:#c7c7c6"/><rect x="429.16" y="198.75" width="107.29" height="99.37" style="fill:#bdbdbb"/><rect x="321.87" y="198.75" width="107.29" height="99.37" style="fill:#d5d5d3"/><rect x="214.58" y="198.75" width="107.29" height="99.37" style="fill:#dfe0de"/><rect y="198.75" width="107.29" height="99.37" style="fill:#d1d1cf"/><rect x="965.62" y="99.37" width="107.29" height="99.37" style="fill:#c2c2c0"/><rect y="99.37" width="107.29" height="99.37" style="fill:#d6d6d4"/><rect x="965.62" width="107.29" height="99.37" style="fill:#c3c3c3"/><rect x="858.32" width="107.29" height="99.37" style="fill:#c3c3c1"/><rect x="751.03" width="107.29" height="99.37" style="fill:#bcbcba"/><rect x="643.74" width="107.29" height="99.37" style="fill:#c2c2c2"/><rect x="536.45" width="107.29" height="99.37" style="fill:#b8b8b6"/><rect x="429.16" width="107.29" height="99.37" style="fill:#c8c8c6"/><rect x="321.87" width="107.29" height="99.37" style="fill:#d4d4d3"/><rect x="214.58" width="107.29" height="99.37" style="fill:#e1e1df"/><rect x="107.29" width="107.29" height="99.37" style="fill:#d7d7d5"/><rect width="107.29" height="99.37" style="fill:#d5d5d3"/></g></g></svg>