<svg xmlns="http://www.w3.org/2000/svg" viewBox="0 0 24.78 20.2"><g id="Layer_2" data-name="Layer 2"><g id="Layer_1-2" data-name="Layer 1"><rect x="0.5" y="0.5" width="23.78" height="19.2" style="fill:#fff"/><path d="M23.78,1V19.2H1V1H23.78m1-1H0V20.2H24.78V0Z"/><rect x="11.11" y="12.46" width="2.53" height="2.97" style="fill:#fff"/><path d="M13.14,13v2H11.61V13h1.53m1-1H10.61v4h3.53V12Z"/><rect x="7.58" y="12.46" width="2.53" height="2.97" style="fill:#fff"/><path d="M9.61,13v2H8.08V13H9.61m1-1H7.08v4h3.53V12Z"/><rect x="4.05" y="12.46" width="2.53" height="2.97" style="fill:#fff"/><path d="M6.08,13v2H4.55V13H6.08m1-1H3.55v4H7.08V12Z"/><rect x="0.54" y="12.46" width="2.53" height="2.97" style="fill:#fff"/><path d="M2.57,13v2H1V13H2.57m1-1H0v4H3.57V12Z"/><rect x="11.13" y="16.15" width="2.53" height="2.97" style="fill:#fff"/><path d="M13.17,16.65v2H11.63v-2h1.54m1-1H10.63v4h3.54v-4Z"/><rect x="7.6" y="16.15" width="2.53" height="2.97" style="fill:#fff"/><path d="M9.63,16.65v2H8.1v-2H9.63m1-1H7.1v4h3.53v-4Z"/><rect x="4.07" y="16.15" width="2.53" height="2.97" style="fill:#fff"/><path d="M6.1,16.65v2H4.57v-2H6.1m1-1H3.57v4H7.1v-4Z"/><rect x="0.54" y="16.15" width="2.53" height="2.97" style="fill:#fff"/><path d="M2.57,16.65v2H1v-2H2.57m1-1H0v4H3.57v-4Z"/><rect x="11.11" y="4.53" width="2.53" height="2.97" style="fill:#fff"/><path d="M13.14,5V7H11.61V5h1.53m1-1H10.61V8h3.53V4Z"/><rect x="7.58" y="4.53" width="2.53" height="2.97" style="fill:#fff"/><path d="M9.61,5V7H8.08V5H9.61m1-1H7.08V8h3.53V4Z"/><rect x="4.05" y="4.53" width="2.53" height="2.97" style="fill:#fff"/><path d="M6.08,5V7H4.55V5H6.08m1-1H3.55V8H7.08V4Z"/><rect x="0.52" y="4.53" width="2.53" height="2.97" style="fill:#fff"/><path d="M2.55,5V7H1V5H2.55m1-1H0V8H3.55V4Z"/><rect x="0.55" y="8.5" width="2.53" height="2.97" style="fill:#fff"/><path d="M2.58,9v2H1.05V9H2.58m1-1H.05v4H3.58V8Z"/><rect x="4.05" y="8.5" width="2.53" height="2.97" style="fill:#fff"/><path d="M6.08,9v2H4.55V9H6.08m1-1H3.55v4H7.08V8Z"/><rect x="7.58" y="8.5" width="2.53" height="2.97" style="fill:#fff"/><path d="M9.61,9v2H8.08V9H9.61m1-1H7.08v4h3.53V8Z"/><rect x="11.11" y="8.5" width="2.53" height="2.97" style="fill:#fff"/><path d="M13.14,9v2H11.61V9h1.53m1-1H10.61v4h3.53V8Z"/><rect x="14.64" y="12.46" width="2.53" height="2.97" style="fill:#fff"/><path d="M16.67,13v2H15.14V13h1.53m1-1H14.14v4h3.53V12Z"/><rect x="14.66" y="16.15" width="2.53" height="2.97" style="fill:#fff"/><path d="M16.69,16.65v2H15.16v-2h1.53m1-1H14.16v4h3.53v-4Z"/><rect x="14.64" y="4.53" width="2.53" height="2.97" style="fill:#fff"/><path d="M16.67,5V7H15.14V5h1.53m1-1H14.14V8h3.53V4Z"/><rect x="14.64" y="8.5" width="2.53" height="2.97" style="fill:#fff"/><path d="M16.67,9v2H15.14V9h1.53m1-1H14.14v4h3.53V8Z"/><rect x="18.15" y="12.46" width="2.53" height="2.97" style="fill:#fff"/><path d="M20.19,13v2H18.65V13h1.54m1-1H17.65v4h3.54V12Z"/><rect x="18.18" y="16.15" width="2.53" height="2.97" style="fill:#fff"/><path d="M20.21,16.65v2H18.68v-2h1.53m1-1H17.68v4h3.53v-4Z"/><rect x="18.17" y="4.53" width="2.53" height="2.97" style="fill:#fff"/><path d="M20.2,5V7H18.67V5H20.2m1-1H17.67V8H21.2V4Z"/><rect x="18.17" y="8.5" width="2.53" height="2.97" style="fill:#fff"/><path d="M20.2,9v2H18.67V9H20.2m1-1H17.67v4H21.2V8Z"/><rect x="21.68" y="12.46" width="2.53" height="2.97" style="fill:#fff"/><path d="M23.72,13v2H22.19V13h1.53m1-1H21.19v4h3.53V12Z"/><rect x="21.71" y="16.15" width="2.53" height="2.97" style="fill:#fff"/><path d="M23.74,16.65v2H22.21v-2h1.53m1-1H21.21v4h3.53v-4Z"/><rect x="21.7" y="4.53" width="2.53" height="2.97" style="fill:#fff"/><path d="M23.73,5V7H22.2V5h1.53m1-1H21.2V8h3.53V4Z"/><rect x="21.7" y="8.5" width="2.53" height="2.97" style="fill:#fff"/><path d="M23.73,9v2H22.2V9h1.53m1-1H21.2v4h3.53V8Z"/></g></g></svg>