<svg xmlns="http://www.w3.org/2000/svg" viewBox="0 0 25.83 23.2"><g id="Layer_2" data-name="Layer 2"><g id="Layer_1-2" data-name="Layer 1"><ellipse cx="12.92" cy="11.6" rx="12.42" ry="11.1" style="fill:#fff"/><path d="M12.92,1c6.57,0,11.91,4.76,11.91,10.6S19.49,22.2,12.92,22.2,1,17.44,1,11.6,6.35,1,12.92,1m0-1C5.78,0,0,5.19,0,11.6S5.78,23.2,12.92,23.2,25.83,18,25.83,11.6,20.05,0,12.92,0Z"/><line x1="13.52" y1="12.06" x2="7.24" y2="12.05" style="fill:none;stroke:#000;stroke-miterlimit:10;stroke-width:0.5px"/><line x1="22.07" y1="10.04" x2="13.52" y2="12.06" style="fill:none;stroke:#000;stroke-miterlimit:10;stroke-width:0.5px"/><path d="M22.11,10.37l0-.07-.21-.6,1.2,0Z"/><path d="M7.42,12.42v-.7l-1.13.36Z"/><ellipse cx="13.55" cy="12.05" rx="0.46" ry="0.44"/></g></g></svg>