<svg xmlns="http://www.w3.org/2000/svg" viewBox="0 0 54.15 36.84"><g id="Layer_2" data-name="Layer 2"><g id="Layer_1-2" data-name="Layer 1"><path d="M34.61,21.36c-6.39,4.47-7.41,6.79-7,8.08.36,1.14,1.82,1.52,1.77,2.7-.07,1.4-2.17,2.85-3.46,2.41-1.09-.37-.89-1.86-1.8-2.66S20.55,31,14,35a14.36,14.36,0,0,0,2.72-9.27c-.27-2.78-2.45-4.26-1.79-5.26.78-1.17,4,0,8.19.69A41.93,41.93,0,0,0,34.61,21.36Z"/><path d="M32.41,8c-1.36,7.68-.44,10,.77,10.66s2.36-.22,3.16.66a3.09,3.09,0,0,1-.74,4.14c-1,.51-2-.68-3.15-.6-1.38.1-3.18,1.89-5,9.36a14.4,14.4,0,0,0-4.63-8.47c-2.16-1.78-4.75-1.29-5-2.46-.28-1.38,2.82-2.79,6.28-5.3A42.26,42.26,0,0,0,32.41,8Z"/><path d="M21.36,2.24c4.47,6.39,6.79,7.4,8.08,7,1.14-.37,1.52-1.83,2.7-1.77a3.08,3.08,0,0,1,2.41,3.45c-.37,1.09-1.86.9-2.66,1.81S31,16.3,35,22.87a14.42,14.42,0,0,0-9.27-2.72c-2.78.27-4.26,2.45-5.26,1.79-1.17-.77,0-4,.69-8.19A41.85,41.85,0,0,0,21.36,2.24Z"/><path d="M8,4.44c7.68,1.35,10,.43,10.66-.78.54-1.05-.22-2.36.66-3.16a3.09,3.09,0,0,1,4.14.74c.51,1-.68,2-.6,3.16.1,1.38,1.89,3.18,9.36,5A14.38,14.38,0,0,0,23.77,14c-1.78,2.16-1.29,4.75-2.46,5-1.38.28-2.79-2.81-5.3-6.28A42,42,0,0,0,8,4.44Z"/><path d="M2.24,15.49C8.63,11,9.64,8.7,9.23,7.4,8.86,6.27,7.4,5.89,7.46,4.7c.06-1.39,2.16-2.85,3.45-2.41,1.09.37.9,1.87,1.81,2.66s3.58.92,10.15-3.08a14.37,14.37,0,0,0-2.72,9.26c.29,2.95,2.24,4.12,1.79,5.26C21.35,17.89,17.25,18.62,2.24,15.49Z"/><path d="M4.44,28.82c1.35-7.68.43-10-.78-10.66-1.05-.54-2.36.22-3.16-.65-.94-1-.48-3.55.74-4.15,1-.51,2,.69,3.16.6,1.38-.1,3.18-1.88,5-9.36A14.4,14.4,0,0,0,14,13.08c2.16,1.77,4.75,1.28,5,2.45.28,1.38-2.81,2.79-6.28,5.3A42.27,42.27,0,0,0,4.44,28.82Z"/><path d="M15.49,34.61C11,28.22,8.7,27.2,7.4,27.62c-1.13.36-1.51,1.82-2.7,1.77a3.1,3.1,0,0,1-2.41-3.46C2.66,24.84,4.16,25,5,24.13S5.87,20.55,1.87,14a14.31,14.31,0,0,0,9.26,2.72c2.78-.27,4.27-2.45,5.26-1.79,1.18.78,0,4-.69,8.19A42.38,42.38,0,0,0,15.49,34.61Z"/><path d="M28.82,32.41c-7.68-1.36-10-.44-10.66.77s.22,2.36-.65,3.16c-1,.94-3.55.48-4.15-.74-.51-1,.69-2,.6-3.15-.1-1.38-1.88-3.18-9.36-5a14.42,14.42,0,0,0,8.48-4.63c1.77-2.16,1.28-4.75,2.45-5,1.38-.28,2.79,2.82,5.3,6.28A42.56,42.56,0,0,0,28.82,32.41Z"/><circle cx="18.94" cy="18.72" r="5.38" style="fill:#fff"/><path d="M52.43,28.65c-3.38,2.27-3.92,3.45-3.7,4.1s1,.77.94,1.38a1.65,1.65,0,0,1-1.83,1.22c-.58-.19-.48-1-1-1.35s-1.89-.47-5.37,1.57A7.11,7.11,0,0,0,43,30.86c-.14-1.41-1.3-2.17-1-2.67s2.1,0,4.34.35A23.41,23.41,0,0,0,52.43,28.65Z"/><path d="M51.26,21.87c-.71,3.91-.23,5.1.41,5.42s1.25-.11,1.68.33A1.55,1.55,0,0,1,53,29.73c-.55.26-1-.35-1.68-.31s-1.68,1-2.64,4.76a7.23,7.23,0,0,0-2.45-4.31c-1.14-.9-2.51-.65-2.64-1.25s1.49-1.41,3.33-2.69A21.93,21.93,0,0,0,51.26,21.87Z"/><path d="M45.42,18.93c2.36,3.25,3.59,3.77,4.28,3.55s.8-.92,1.42-.89a1.58,1.58,0,0,1,1.28,1.75c-.2.56-1,.46-1.41.92s-.48,1.82,1.64,5.16A7.87,7.87,0,0,0,47.72,28c-1.47.14-2.25,1.25-2.78.91s0-2,.36-4.16A20.4,20.4,0,0,0,45.42,18.93Z"/><path d="M38.36,20.05c4.06.69,5.31.22,5.64-.39s-.12-1.2.35-1.61a1.69,1.69,0,0,1,2.19.38c.27.52-.36,1-.32,1.6s1,1.62,5,2.54a7.77,7.77,0,0,0-4.49,2.35c-.94,1.1-.68,2.41-1.3,2.54s-1.47-1.43-2.8-3.19A22.05,22.05,0,0,0,38.36,20.05Z"/><path d="M35.3,25.67c3.38-2.28,3.92-3.45,3.7-4.11s-1-.77-.94-1.37A1.64,1.64,0,0,1,39.89,19c.58.19.47.95,1,1.35s1.9.47,5.38-1.56a7.08,7.08,0,0,0-1.44,4.7c.15,1.5,1.19,2.1.95,2.68C45.41,26.88,43.24,27.26,35.3,25.67Z"/><path d="M36.46,32.44c.72-3.9.23-5.1-.41-5.41s-1.25.11-1.67-.34a1.53,1.53,0,0,1,.39-2.11c.55-.25,1,.35,1.67.31s1.69-1,2.65-4.75a7.24,7.24,0,0,0,2.45,4.3c1.14.9,2.51.65,2.64,1.25s-1.49,1.41-3.33,2.69A22,22,0,0,0,36.46,32.44Z"/><path d="M42.31,35.38c-2.37-3.25-3.59-3.76-4.28-3.55s-.8.92-1.43.9A1.58,1.58,0,0,1,35.33,31c.19-.55,1-.45,1.4-.92s.49-1.81-1.63-5.15A7.84,7.84,0,0,0,40,26.28c1.48-.14,2.26-1.25,2.79-.91s0,2-.37,4.16A20.83,20.83,0,0,0,42.31,35.38Z"/><path d="M49.37,34.26c-4.07-.69-5.31-.22-5.64.39s.11,1.2-.35,1.61a1.69,1.69,0,0,1-2.2-.38c-.27-.52.37-1,.32-1.6s-1-1.62-5-2.54A7.68,7.68,0,0,0,41,29.39c.95-1.1.68-2.41,1.3-2.53s1.48,1.43,2.81,3.19A22,22,0,0,0,49.37,34.26Z"/><ellipse cx="44.14" cy="27.31" rx="2.85" ry="2.73" style="fill:#fff"/><path d="M53.49,14.87c-1.91,1.28-2.22,1.94-2.09,2.32s.54.43.53.77a.92.92,0,0,1-1,.69c-.32-.11-.26-.53-.54-.76s-1.07-.26-3,.88a4,4,0,0,0,.81-2.65c-.08-.8-.73-1.23-.53-1.51s1.18,0,2.45.2A13.59,13.59,0,0,0,53.49,14.87Z"/><path d="M52.83,11c-.41,2.2-.13,2.88.23,3.06s.7-.06.94.19a.86.86,0,0,1-.22,1.19c-.31.14-.58-.2-.94-.18s-1,.54-1.49,2.69A4,4,0,0,0,50,15.56c-.64-.51-1.41-.37-1.49-.71s.84-.8,1.88-1.52A12.57,12.57,0,0,0,52.83,11Z"/><path d="M49.53,9.38c1.33,1.84,2,2.13,2.41,2s.45-.53.81-.51a.89.89,0,0,1,.72,1c-.11.31-.56.26-.79.52s-.28,1,.92,2.91a4.41,4.41,0,0,0-2.77-.78c-.83.08-1.28.7-1.57.51s0-1.13.2-2.35A11.31,11.31,0,0,0,49.53,9.38Z"/><path d="M45.54,10c2.3.39,3,.13,3.19-.22s-.07-.68.19-.91a1,1,0,0,1,1.24.22c.15.29-.2.56-.18.9s.57.91,2.8,1.44a4.34,4.34,0,0,0-2.53,1.32c-.53.62-.39,1.37-.74,1.43s-.83-.8-1.58-1.8A12.43,12.43,0,0,0,45.54,10Z"/><path d="M43.81,13.18c1.91-1.28,2.22-1.94,2.09-2.32s-.54-.43-.53-.77a.92.92,0,0,1,1-.69c.32.1.26.53.54.76s1.07.26,3-.88a4,4,0,0,0-.81,2.65c.08.85.67,1.19.53,1.51S48.3,14.08,43.81,13.18Z"/><path d="M44.47,17c.41-2.21.13-2.88-.23-3.06s-.7.06-.94-.19a.86.86,0,0,1,.22-1.19c.31-.14.58.2.94.18s.95-.54,1.49-2.69a4,4,0,0,0,1.39,2.43c.64.51,1.41.37,1.49.71S48,14,47,14.72A12.27,12.27,0,0,0,44.47,17Z"/><path d="M47.77,18.67c-1.33-1.84-2-2.13-2.41-2s-.45.53-.81.51a.89.89,0,0,1-.72-1c.11-.31.56-.26.79-.52s.28-1-.92-2.91a4.47,4.47,0,0,0,2.77.78c.83-.08,1.28-.7,1.57-.51s0,1.13-.2,2.34A11.38,11.38,0,0,0,47.77,18.67Z"/><path d="M51.76,18c-2.3-.39-3-.13-3.19.22s.07.67-.19.9A1,1,0,0,1,47.14,19c-.16-.29.2-.56.18-.9s-.57-.92-2.8-1.44a4.34,4.34,0,0,0,2.53-1.32c.53-.62.39-1.37.74-1.43s.83.8,1.58,1.8A12.43,12.43,0,0,0,51.76,18Z"/><ellipse cx="48.8" cy="14.11" rx="1.61" ry="1.54" style="fill:#fff"/></g></g></svg>