<svg xmlns="http://www.w3.org/2000/svg" viewBox="0 0 20.18 23.11"><g id="Layer_2" data-name="Layer 2"><g id="Layer_1-2" data-name="Layer 1"><line x1="5.14" y1="0.89" x2="20.06" y2="0.89" style="fill:none;stroke:#000;stroke-miterlimit:10"/><ellipse cx="0.89" cy="0.89" rx="0.39" ry="0.39" style="fill:none;stroke:#000;stroke-miterlimit:10"/><line x1="5.14" y1="3.93" x2="20.06" y2="3.93" style="fill:none;stroke:#000;stroke-miterlimit:10"/><ellipse cx="0.89" cy="3.93" rx="0.39" ry="0.39" style="fill:none;stroke:#000;stroke-miterlimit:10"/><line x1="5.2" y1="6.98" x2="20.12" y2="6.98" style="fill:none;stroke:#000;stroke-miterlimit:10"/><ellipse cx="0.96" cy="6.98" rx="0.39" ry="0.39" style="fill:none;stroke:#000;stroke-miterlimit:10"/><line x1="5.2" y1="10.03" x2="20.12" y2="10.03" style="fill:none;stroke:#000;stroke-miterlimit:10"/><ellipse cx="0.96" cy="10.03" rx="0.39" ry="0.39" style="fill:none;stroke:#000;stroke-miterlimit:10"/><line x1="5.2" y1="13.08" x2="20.12" y2="13.08" style="fill:none;stroke:#000;stroke-miterlimit:10"/><ellipse cx="0.96" cy="13.08" rx="0.39" ry="0.39" style="fill:none;stroke:#000;stroke-miterlimit:10"/><line x1="5.2" y1="16.13" x2="20.12" y2="16.13" style="fill:none;stroke:#000;stroke-miterlimit:10"/><ellipse cx="0.96" cy="16.13" rx="0.39" ry="0.39" style="fill:none;stroke:#000;stroke-miterlimit:10"/><line x1="5.26" y1="19.18" x2="20.18" y2="19.18" style="fill:none;stroke:#000;stroke-miterlimit:10"/><ellipse cx="1.02" cy="19.18" rx="0.39" ry="0.39" style="fill:none;stroke:#000;stroke-miterlimit:10"/><line x1="5.26" y1="22.23" x2="20.18" y2="22.23" style="fill:none;stroke:#000;stroke-miterlimit:10"/><ellipse cx="1.02" cy="22.23" rx="0.39" ry="0.39" style="fill:none;stroke:#000;stroke-miterlimit:10"/></g></g></svg>