<svg xmlns="http://www.w3.org/2000/svg" xmlns:xlink="http://www.w3.org/1999/xlink" preserveAspectRatio='none' viewBox="0 0 2232 1355.54"><g id="Layer_2" data-name="Layer 2"><g id="Layer_1-2" data-name="Layer 1"><image width="507" height="338" transform="scale(4.4 4.01)" xlink:href="Asset%2016801.png"/><rect x="2009.7" y="1220.4" width="223.3" height="135.6" style="fill:#b2b1ae"/><rect x="1786.4" y="1220.4" width="223.3" height="135.6" style="fill:#b0b0ae"/><rect x="1563.1" y="1220.4" width="223.3" height="135.6" style="fill:#a5a4a2"/><rect x="1339.8" y="1220.4" width="223.3" height="135.6" style="fill:#b7b6b4"/><rect x="1116.5" y="1220.4" width="223.3" height="135.6" style="fill:#aaa9a5"/><rect x="893.2" y="1220.4" width="223.3" height="135.6" style="fill:#b3b2b0"/><rect x="669.9" y="1220.4" width="223.3" height="135.6" style="fill:#c2c2c0"/><rect x="446.6" y="1220.4" width="223.3" height="135.6" style="fill:#dcdbd9"/><rect x="223.3" y="1220.4" width="223.3" height="135.6" style="fill:#cacac8"/><rect y="1220.4" width="223.3" height="135.6" style="fill:#bfbfbd"/><rect x="2009.7" y="1084.8" width="223.3" height="135.6" style="fill:#b1b0ac"/><rect x="1786.4" y="1084.8" width="223.3" height="135.6" style="fill:#b0afad"/><rect x="1563.1" y="1084.8" width="223.3" height="135.6" style="fill:#b5b4b2"/><rect x="1339.8" y="1084.8" width="223.3" height="135.6" style="fill:#b3b2b0"/><rect x="1116.5" y="1084.8" width="223.3" height="135.6" style="fill:#aeadab"/><rect x="893.2" y="1084.8" width="223.3" height="135.6" style="fill:#b5b5b3"/><rect x="669.9" y="1084.8" width="223.3" height="135.6" style="fill:#c9c9c7"/><rect x="446.6" y="1084.8" width="223.3" height="135.6" style="fill:#d4d4d2"/><rect x="223.3" y="1084.8" width="223.3" height="135.6" style="fill:#c2c2c0"/><rect y="1084.8" width="223.3" height="135.6" style="fill:#c9c9c7"/><rect x="2009.7" y="949.2" width="223.3" height="135.6" style="fill:#bbbbb9"/><rect x="1786.4" y="949.2" width="223.3" height="135.6" style="fill:#b7b6b4"/><rect x="1563.1" y="949.2" width="223.3" height="135.6" style="fill:#b6b5b3"/><rect x="1339.8" y="949.2" width="223.3" height="135.6" style="fill:#abaaa8"/><rect x="1116.5" y="949.2" width="223.3" height="135.6" style="fill:#afaeac"/><rect x="893.2" y="949.2" width="223.3" height="135.6" style="fill:#b7b7b4"/><rect x="669.9" y="949.2" width="223.3" height="135.6" style="fill:#cacac7"/><rect x="446.6" y="949.2" width="223.3" height="135.6" style="fill:#dfdedc"/><rect x="223.3" y="949.2" width="223.3" height="135.6" style="fill:#d2d2d0"/><rect y="949.2" width="223.3" height="135.6" style="fill:#c8c8c6"/><rect x="2009.7" y="813.6" width="223.3" height="135.6" style="fill:#b5b5b3"/><rect x="1786.4" y="813.6" width="223.3" height="135.6" style="fill:#b4b4b2"/><rect x="1563.1" y="813.6" width="223.3" height="135.6" style="fill:#b0b0ae"/><rect x="1339.8" y="813.6" width="223.3" height="135.6" style="fill:#b9b9b7"/><rect x="1116.5" y="813.6" width="223.3" height="135.6" style="fill:#bcbcba"/><rect x="893.2" y="813.6" width="223.3" height="135.6" style="fill:#bebdbb"/><rect x="669.9" y="813.6" width="223.3" height="135.6" style="fill:#ccccca"/><rect x="446.6" y="813.6" width="223.3" height="135.6" style="fill:#d8d8d6"/><rect x="223.3" y="813.6" width="223.3" height="135.6" style="fill:#d1d1cf"/><rect y="813.6" width="223.3" height="135.6" style="fill:#cacac8"/><rect x="2009.7" y="678" width="223.3" height="135.6" style="fill:#b7b7b5"/><rect x="1786.4" y="678" width="223.3" height="135.6" style="fill:#b8b8b6"/><rect x="1563.1" y="678" width="223.3" height="135.6" style="fill:#b8b7b5"/><rect x="1339.8" y="678" width="223.3" height="135.6" style="fill:#b5b5b3"/><rect x="1116.5" y="678" width="223.3" height="135.6" style="fill:#b7b6b4"/><rect x="893.2" y="678" width="223.3" height="135.6" style="fill:#c6c5c3"/><rect x="669.9" y="678" width="223.3" height="135.6" style="fill:#cccbc9"/><rect x="446.6" y="678" width="223.3" height="135.6" style="fill:#dfdedc"/><rect x="223.3" y="678" width="223.3" height="135.6" style="fill:#d3d2d0"/><rect y="678" width="223.3" height="135.6" style="fill:#cdcdcb"/><rect x="2009.7" y="542.4" width="223.3" height="135.6" style="fill:#babab8"/><rect x="1786.4" y="542.4" width="223.3" height="135.6" style="fill:#b4b4b2"/><rect x="1563.1" y="542.4" width="223.3" height="135.6" style="fill:#b9b8b6"/><rect x="1339.8" y="542.4" width="223.3" height="135.6" style="fill:#b1b1af"/><rect x="1116.5" y="542.4" width="223.3" height="135.6" style="fill:#b9b9b7"/><rect x="893.2" y="542.4" width="223.3" height="135.6" style="fill:#c4c4c2"/><rect x="669.9" y="542.4" width="223.3" height="135.6" style="fill:#cdcdcb"/><rect x="446.6" y="542.4" width="223.3" height="135.6" style="fill:#e0dfdd"/><rect x="223.3" y="542.4" width="223.3" height="135.6" style="fill:#dad9d7"/><rect y="542.4" width="223.3" height="135.6" style="fill:#ccccca"/><rect x="2009.7" y="406.8" width="223.3" height="135.6" style="fill:#b6b6b4"/><rect x="1786.4" y="406.8" width="223.3" height="135.6" style="fill:#babab8"/><rect x="1563.1" y="406.8" width="223.3" height="135.6" style="fill:#babab8"/><rect x="1339.8" y="406.8" width="223.3" height="135.6" style="fill:#c2c2c0"/><rect x="1116.5" y="406.8" width="223.3" height="135.6" style="fill:#c0c0be"/><rect x="893.2" y="406.8" width="223.3" height="135.6" style="fill:#c6c6c4"/><rect x="669.9" y="406.8" width="223.3" height="135.6" style="fill:#d5d5d3"/><rect x="446.6" y="406.8" width="223.3" height="135.6" style="fill:#dddcda"/><rect x="223.3" y="406.8" width="223.3" height="135.6" style="fill:#e1e1df"/><rect y="406.8" width="223.3" height="135.6" style="fill:#cdcdcb"/><rect x="2009.7" y="271.2" width="223.3" height="135.6" style="fill:#bebebd"/><rect x="1786.4" y="271.2" width="223.3" height="135.6" style="fill:#bbbbb9"/><rect x="1563.1" y="271.2" width="223.3" height="135.6" style="fill:#bfbfbd"/><rect x="1339.8" y="271.2" width="223.3" height="135.6" style="fill:#bfbfbd"/><rect x="1116.5" y="271.2" width="223.3" height="135.6" style="fill:#c7c7c6"/><rect x="893.2" y="271.2" width="223.3" height="135.6" style="fill:#bdbdbb"/><rect x="669.9" y="271.2" width="223.3" height="135.6" style="fill:#d5d5d3"/><rect x="446.6" y="271.2" width="223.3" height="135.6" style="fill:#dfe0de"/><rect x="223.3" y="271.2" width="223.3" height="135.6" style="fill:#e2e2e0"/><rect y="271.2" width="223.3" height="135.6" style="fill:#d1d1cf"/><rect x="2009.7" y="135.6" width="223.3" height="135.6" style="fill:#c2c2c0"/><rect x="1786.4" y="135.6" width="223.3" height="135.6" style="fill:#c6c6c4"/><rect x="1563.1" y="135.6" width="223.3" height="135.6" style="fill:#c1c1bf"/><rect x="1339.8" y="135.6" width="223.3" height="135.6" style="fill:#c1c1bf"/><rect x="1116.5" y="135.6" width="223.3" height="135.6" style="fill:#c2c2c0"/><rect x="893.2" y="135.6" width="223.3" height="135.6" style="fill:#c1c1bf"/><rect x="669.9" y="135.6" width="223.3" height="135.6" style="fill:#cbcbc9"/><rect x="446.6" y="135.6" width="223.3" height="135.6" style="fill:#e2e1e0"/><rect x="223.3" y="135.6" width="223.3" height="135.6" style="fill:#dededc"/><rect y="135.6" width="223.3" height="135.6" style="fill:#d6d6d4"/><rect x="2009.7" width="223.3" height="135.6" style="fill:#c3c3c3"/><rect x="1786.4" width="223.3" height="135.6" style="fill:#c3c3c1"/><rect x="1563.1" width="223.3" height="135.6" style="fill:#bcbcba"/><rect x="1339.8" width="223.3" height="135.6" style="fill:#c2c2c2"/><rect x="1116.5" width="223.3" height="135.6" style="fill:#b8b8b6"/><rect x="893.2" width="223.3" height="135.6" style="fill:#c8c8c6"/><rect x="669.9" width="223.3" height="135.6" style="fill:#d4d4d3"/><rect x="446.6" width="223.3" height="135.6" style="fill:#e1e1df"/><rect x="223.3" width="223.3" height="135.6" style="fill:#d7d7d5"/><rect width="223.3" height="135.6" style="fill:#d5d5d3"/></g></g></svg>
